<svg width="383" height="489" viewBox="0 0 383 489" fill="none" xmlns="http://www.w3.org/2000/svg">
    <path d="M358.613 2c8.921 10.204 19.283 22.543 22.054 36.227 2.724 13.449-5.176 20.435-17.055 25.288-30.436 12.435-67.31 13.963-99.8 14.938-62.71 1.881-124.388-19.703-186.84-3.411-14.326 3.737-74.05 25.101-74.97 44.217-.402 8.35 58-18.5 66 1.5 6.58 16.45-61 46.469-36 55.5 7.623 2.753 58.994-13.114 66.789-14.531 14.83-2.697 29.615-6.685 44.225-10.351 15.032-3.771 29.618-8.039 43.99-13.879 15.33-6.229 30.013-14.03 46.577-16.584 22.489-3.469 49.757-.846 67.985 14.114 6.651 5.459 17.683 22.408 7.998 30.287-6.087 4.952-17.322 4.2-24.348 4.411-16.291.488-32.633.235-48.929.235C226.252 169.961 141 194 141 234c8 41.5 176.689-28.965 160.568 44.5C285.218 353 109 280 187.006 487.5" stroke="#B6DCF7" stroke-width="3" stroke-linecap="round"/>
</svg>
