<svg width="260" height="201" viewBox="0 0 260 201" fill="none" xmlns="http://www.w3.org/2000/svg">
<path d="M258 2C256.251 10.3241 250.381 18.3205 242.022 21.0996C232.659 24.2126 220.798 22.3562 211.089 22.3562C198.023 22.3562 184.93 22.1095 171.873 22.6703C161.202 23.1287 147.89 24.0464 139.296 31.4034C133.203 36.6189 131.508 46.0413 136.907 52.3565C141.085 57.2433 148.666 59.3453 154.561 61.1209C162.188 63.4186 170.584 60.8063 178.264 63.1628C196.687 63.1628 183.686 80.5236 180.87 84.9955C174.17 95.6367 155.744 97.0904 144.756 97.4354C126.082 98.0217 107.227 96.4859 88.6001 98.1893C84.8213 98.5349 39.3883 97.4354 24.8834 112.401C10.3785 127.367 -37.1373 199 71.399 199" stroke="#B6DCF7" stroke-width="3" stroke-linecap="round"/>
</svg>
