<svg width="23" height="6" viewBox="0 0 23 6" fill="none" xmlns="http://www.w3.org/2000/svg">
<path d="M0.102344 3.35C0.102344 2.61667 0.36901 2 0.902344 1.5C1.46901 0.966666 2.08568 0.7 2.75234 0.7C3.35234 0.7 3.91901 0.966666 4.45234 1.5C5.01901 2 5.30234 2.61667 5.30234 3.35C5.30234 4.15 5.01901 4.8 4.45234 5.3C3.91901 5.76667 3.35234 6 2.75234 6C2.08568 6 1.46901 5.76667 0.902344 5.3C0.36901 4.8 0.102344 4.15 0.102344 3.35ZM8.50078 3.35C8.50078 2.61667 8.76745 2 9.30078 1.5C9.86745 0.966666 10.4841 0.7 11.1508 0.7C11.7508 0.7 12.3174 0.966666 12.8508 1.5C13.4174 2 13.7008 2.61667 13.7008 3.35C13.7008 4.15 13.4174 4.8 12.8508 5.3C12.3174 5.76667 11.7508 6 11.1508 6C10.4841 6 9.86745 5.76667 9.30078 5.3C8.76745 4.8 8.50078 4.15 8.50078 3.35ZM16.8992 3.35C16.8992 2.61667 17.1659 2 17.6992 1.5C18.2659 0.966666 18.8826 0.7 19.5492 0.7C20.1492 0.7 20.7159 0.966666 21.2492 1.5C21.8159 2 22.0992 2.61667 22.0992 3.35C22.0992 4.15 21.8159 4.8 21.2492 5.3C20.7159 5.76667 20.1492 6 19.5492 6C18.8826 6 18.2659 5.76667 17.6992 5.3C17.1659 4.8 16.8992 4.15 16.8992 3.35Z" fill="black"/>
</svg>
