<svg width="333" height="29" viewBox="0 0 333 29" fill="none" xmlns="http://www.w3.org/2000/svg">
<path d="M2 27.1038C4.97939 9.2275 21.2755 6.69824 36.3231 6.95768C55.1478 7.28225 67.5229 22.0673 86.5019 22.0673C102.086 22.0673 114.911 11.0171 130.525 9.0096C139.991 7.79255 149.121 6.95768 159.438 8.63653C169.756 10.3154 171.311 14.209 176.6 16.6577C189.385 22.5768 210.063 24.7421 223.608 20.3885C242.317 14.3748 257.625 5.97451 278.263 9.0096C284.484 9.92438 289.523 14.8501 294.959 17.7769C298.531 19.7002 307.621 22.0673 311.621 20.3885C320.51 16.6577 326.121 8.63653 331.054 1.92114" stroke="#B6DCF7" stroke-width="3" stroke-linecap="round"/>
</svg>
